<svg id="Capa_1" enable-background="new 0 0 510 510" height="512" viewBox="0 0 510 510" width="512" xmlns="http://www.w3.org/2000/svg"><path d="m466.171 0h-285.484c-22.806 0-41.36 18.554-41.36 41.36v23.981h-23.98c-22.806 0-41.36 18.55-41.36 41.35v25.746h-30.161c-22.804 0-41.357 18.553-41.357 41.357v232.723c0 22.805 18.553 41.358 41.357 41.358h92.099l38.287 55.634c5.958 8.657 18.76 8.65 24.713 0l38.287-55.634h92.099c22.804 0 41.357-18.553 41.357-41.358v-25.743h30.161c22.806 0 41.36-18.554 41.36-41.36v-23.981h23.981c22.806 0 41.361-18.55 41.361-41.35v-232.723c.001-22.806-18.554-41.36-41.36-41.36zm-125.503 406.518c0 6.263-5.095 11.358-11.357 11.358h-99.986c-4.937 0-9.558 2.43-12.357 6.496l-30.401 44.175-30.401-44.175c-2.799-4.066-7.42-6.496-12.357-6.496h-99.983c-6.262 0-11.357-5.095-11.357-11.358v-232.724c0-6.262 5.095-11.357 11.357-11.357 5.85 0 261.027.004 285.484.004 6.338 0 11.359 5.207 11.359 11.353v232.724zm71.522-67.104c0 6.264-5.096 11.36-11.36 11.36h-30.16v-176.982c0-22.786-18.54-41.355-41.358-41.355h-225.325v-25.746c0-6.258 5.096-11.35 11.36-11.35h285.483c6.264 0 11.36 5.092 11.36 11.35zm65.341-65.331c0 6.258-5.097 11.35-11.36 11.35h-23.981v-178.742c0-22.8-18.554-41.35-41.36-41.35h-231.503v-23.981c0-6.264 5.096-11.36 11.36-11.36h285.483c6.264 0 11.36 5.096 11.36 11.36v232.723z"/><path d="m178.294 232.1c-22.346 0-40.526 18.18-40.526 40.527v47.931c0 8.284 6.716 15 15 15s15-6.716 15-15v-13.029h21.052v13.029c0 8.284 6.716 15 15 15s15-6.716 15-15v-47.931c.001-22.347-18.179-40.527-40.526-40.527zm-10.525 45.429v-4.901c0-5.805 4.722-10.526 10.526-10.526s10.526 4.722 10.526 10.526v4.901z"/><path d="m110.348 262.101c8.284 0 15-6.716 15-15s-6.716-15-15-15h-46.119c-8.284 0-15 6.716-15 15v73.458c0 8.284 6.716 15 15 15s15-6.716 15-15v-20.08h31.118c8.284 0 15-6.716 15-15s-6.716-15-15-15h-31.117v-8.377h31.118z"/><path d="m318.873 319.713-9.847-8.751c2.1-4.893 3.266-10.276 3.266-15.929v-22.406c0-22.347-18.18-40.527-40.526-40.527s-40.526 18.18-40.526 40.527v22.406c0 29.035 29.858 48.767 56.568 37.208l11.134 9.896c6.191 5.503 15.673 4.944 21.177-1.247 5.504-6.193 4.947-15.674-1.246-21.177zm-57.631-24.68v-22.406c0-5.805 4.722-10.526 10.526-10.526s10.526 4.722 10.526 10.526v22.406c0 5.804-4.722 10.526-10.526 10.526-5.805-.001-10.526-4.722-10.526-10.526z"/></svg>