<svg id="Capa_1" enable-background="new 0 0 512 512" height="512" viewBox="0 0 512 512" width="512" xmlns="http://www.w3.org/2000/svg"><g><g><g><path d="m141.668 504.5h-107.682c-14.628 0-26.486-11.858-26.486-26.486 0-44.363 35.963-80.327 80.327-80.327 44.363 0 80.327 35.963 80.327 80.327-.001 14.628-11.859 26.486-26.486 26.486z" fill="#fd8087"/><g><path d="m87.827 397.688c-9.678 0-18.955 1.713-27.546 4.85 2.549 21.241 20.619 37.709 42.546 37.709 16.387 0 30.62-9.198 37.834-22.71-14.125-12.35-32.598-19.849-52.834-19.849z" fill="#fe646f"/><path d="m87.827 408.829c-23.674 0-42.866-19.192-42.866-42.866v-52.301c0-13.879 11.251-25.13 25.13-25.13h35.473c13.879 0 25.13 11.251 25.13 25.13v52.301c-.001 23.675-19.193 42.866-42.867 42.866z" fill="#ffcebf"/><path d="m105.563 288.533h-35.473c-13.879 0-25.13 11.251-25.13 25.129v31.974l36.325-11.967c13.395-4.413 28.078-2.388 39.779 5.487l9.628 6.48v-31.974c.001-13.878-11.25-25.129-25.129-25.129z" fill="#c59191"/></g></g><g><path d="m478.014 223.467h-107.682c-14.628 0-26.486-11.858-26.486-26.486 0-44.363 35.963-80.327 80.327-80.327 44.363 0 80.327 35.963 80.327 80.327 0 14.628-11.858 26.486-26.486 26.486z" fill="#fee97d"/><g><path d="m424.173 116.654c-10.047 0-19.655 1.86-28.519 5.229 5.382 17.524 21.692 30.265 40.98 30.265 14.989 0 28.172-7.698 35.835-19.351-13.443-10.131-30.166-16.143-48.296-16.143z" fill="#fedf30"/><path d="m424.173 127.796c-23.674 0-42.866-19.192-42.866-42.866v-52.3c0-13.879 11.251-25.13 25.13-25.13h35.473c13.879 0 25.13 11.251 25.13 25.13v52.3c-.001 23.674-19.193 42.866-42.867 42.866z" fill="#ffcebf"/><path d="m441.91 7.5h-35.473c-13.879 0-25.13 11.251-25.13 25.129v31.974l36.325-11.967c13.396-4.413 28.079-2.388 39.779 5.487l9.627 6.48v-31.974c.001-13.878-11.25-25.129-25.128-25.129z" fill="#c59191"/></g></g><g><path d="m484.5 442.5h-270c-11.046 0-20-8.954-20-20v-58.32c0-3.788-2.14-7.25-5.528-8.944l-15.528-7.764c-3.685-1.843-3.685-7.102 0-8.944l15.528-7.764c3.388-1.694 5.528-5.157 5.528-8.944v-13.32c0-11.046 8.954-20 20-20h270c11.046 0 20 8.954 20 20v114c0 11.046-8.954 20-20 20z" fill="#7acaa6"/><path d="m484.5 288.5h-30c11.046 0 20 8.954 20 20v114c0 11.046-8.954 20-20 20h30c11.046 0 20-8.954 20-20v-114c0-11.046-8.954-20-20-20z" fill="#57be92"/></g><path d="m27.5 161.5h270c11.046 0 20-8.954 20-20v-58.32c0-3.788 2.14-7.25 5.528-8.944l15.528-7.764c3.685-1.843 3.685-7.102 0-8.944l-15.528-7.764c-3.388-1.694-5.528-5.157-5.528-8.944v-13.32c0-11.046-8.954-20-20-20h-270c-11.046 0-20 8.954-20 20v114c0 11.046 8.954 20 20 20z" fill="#7acaa6"/><path d="m338.556 57.528-15.528-7.764c-3.388-1.694-5.528-5.156-5.528-8.944v-13.32c0-11.046-8.954-20-20-20h-30c11.046 0 20 8.954 20 20v13.32c0 3.788 2.14 7.25 5.528 8.944l15.528 7.764c3.685 1.843 3.685 7.102 0 8.944l-15.528 7.764c-3.388 1.694-5.528 5.156-5.528 8.944v58.32c0 11.046-8.954 20-20 20h30c11.046 0 20-8.954 20-20v-58.32c0-3.788 2.14-7.25 5.528-8.944l15.528-7.764c3.685-1.843 3.685-7.101 0-8.944z" fill="#57be92"/></g><path d="m464.781 324.151h-148.676c-4.143 0-7.5 3.357-7.5 7.5s3.357 7.5 7.5 7.5h148.676c4.143 0 7.5-3.357 7.5-7.5s-3.357-7.5-7.5-7.5zm-211.912-281c-22.799 0-41.348 18.549-41.348 41.349s18.549 41.349 41.348 41.349c8.833 0 17.021-2.793 23.747-7.53l5.059 5.059c2.929 2.929 7.677 2.929 10.606.001 2.93-2.929 2.93-7.678.001-10.606l-5.15-5.15c4.471-6.604 7.085-14.564 7.085-23.122.001-22.801-18.548-41.35-41.348-41.35zm23.342 53.55-5.585-5.586c-2.929-2.93-7.678-2.929-10.606-.001-2.93 2.929-2.93 7.678-.001 10.606l5.744 5.745c-3.815 2.15-8.212 3.383-12.894 3.383-14.528 0-26.348-11.82-26.348-26.349s11.819-26.349 26.348-26.349 26.349 11.82 26.349 26.349c0 4.402-1.091 8.551-3.007 12.202zm-248.711 72.299h270c15.163 0 27.5-12.337 27.5-27.5v-58.319c0-.953.529-1.81 1.383-2.236l15.525-7.764c4.264-2.131 6.911-6.415 6.911-11.181s-2.647-9.05-6.909-11.18l-15.529-7.766c-.852-.426-1.381-1.282-1.381-2.235v-13.319c0-15.163-12.337-27.5-27.5-27.5h-46.354c-4.143 0-7.5 3.357-7.5 7.5s3.357 7.5 7.5 7.5h46.354c6.893 0 12.5 5.607 12.5 12.5v13.319c0 6.673 3.708 12.671 9.674 15.652l11.055 5.529-11.054 5.527c-5.967 2.983-9.675 8.981-9.675 15.654v58.319c0 6.893-5.607 12.5-12.5 12.5h-270c-6.893 0-12.5-5.607-12.5-12.5v-114c0-6.893 5.607-12.5 12.5-12.5h193.646c4.143 0 7.5-3.357 7.5-7.5s-3.357-7.5-7.5-7.5h-193.646c-15.163 0-27.5 12.337-27.5 27.5v114c0 15.163 12.337 27.5 27.5 27.5zm457 112h-270c-15.163 0-27.5 12.337-27.5 27.5v13.319c0 .953-.529 1.81-1.383 2.236l-15.525 7.764c-4.264 2.131-6.911 6.415-6.911 11.181s2.647 9.05 6.909 11.18l15.529 7.766c.852.426 1.381 1.282 1.381 2.235v58.319c0 15.163 12.337 27.5 27.5 27.5h270c15.163 0 27.5-12.337 27.5-27.5v-114c0-15.163-12.337-27.5-27.5-27.5zm12.5 141.5c0 6.893-5.607 12.5-12.5 12.5h-270c-6.893 0-12.5-5.607-12.5-12.5v-58.319c0-6.673-3.708-12.671-9.674-15.652l-11.055-5.529 11.054-5.527c5.968-2.982 9.676-8.98 9.676-15.653v-13.32c0-6.893 5.607-12.5 12.5-12.5h270c6.893 0 12.5 5.607 12.5 12.5v114zm-160.65-225.52c0 18.742 15.243 33.989 33.98 33.989h107.68c9.078 0 17.613-3.536 24.028-9.951 6.424-6.411 9.962-14.947 9.962-24.038 0-23.458-9.137-45.514-25.727-62.104-6.997-6.997-15.157-12.767-24.015-17.043 7.642-8.833 12.281-20.333 12.281-32.903v-52.3c0-17.992-14.638-32.63-32.63-32.63h-35.473c-17.991 0-32.629 14.638-32.629 32.63v52.3c0 12.571 4.64 24.07 12.282 32.904-8.856 4.276-17.016 10.046-24.013 17.042-16.59 16.591-25.726 38.646-25.726 62.104zm52.458-164.35c0-9.721 7.908-17.63 17.629-17.63h35.473c9.721 0 17.63 7.909 17.63 17.63v17.969c-13.332-8.132-29.319-10.007-44.253-5.085l-26.479 8.723zm0 37.399 31.172-10.269c11.277-3.713 23.394-2.043 33.244 4.586l6.315 4.25v16.334c0 19.501-15.865 35.366-35.366 35.366-19.5 0-35.365-15.865-35.365-35.366zm10.302 58.56c7.387 4.257 15.942 6.707 25.063 6.707 9.122 0 17.677-2.45 25.065-6.708 9.857 3.616 18.941 9.408 26.428 16.895 13.758 13.757 21.334 32.046 21.334 51.497 0 5.078-1.974 9.844-5.563 13.426-3.587 3.588-8.355 5.563-13.427 5.563h-107.68c-10.466 0-18.98-8.519-18.98-18.989 0-19.451 7.576-37.74 21.333-51.497 7.488-7.487 16.571-13.278 26.427-16.894zm-210.719-85.438h-141.172c-4.143 0-7.5 3.357-7.5 7.5s3.357 7.5 7.5 7.5h141.172c4.143 0 7.5-3.357 7.5-7.5s-3.358-7.5-7.5-7.5zm246.39 348.698h-118.676c-4.143 0-7.5 3.357-7.5 7.5s3.357 7.5 7.5 7.5h118.676c4.143 0 7.5-3.357 7.5-7.5s-3.357-7.5-7.5-7.5zm-295.466 24.069c-2.929 2.93-2.927 7.679.003 10.606 13.756 13.747 21.332 32.031 21.332 51.485 0 5.077-1.973 9.846-5.553 13.427-3.589 3.588-8.357 5.563-13.428 5.563h-107.679c-10.471.001-18.99-8.518-18.99-18.989 0-19.454 7.576-37.738 21.334-51.486 7.482-7.483 16.566-13.277 26.43-16.901 7.387 4.257 15.942 6.707 25.063 6.707 27.771 0 50.365-22.594 50.365-50.365v-52.301c0-17.992-14.638-32.63-32.629-32.63h-35.472c-17.992 0-32.63 14.638-32.63 32.63v52.301c0 12.571 4.64 24.072 12.284 32.906-8.862 4.281-17.023 10.052-24.017 17.045-16.59 16.579-25.728 38.632-25.728 62.094 0 18.742 15.248 33.99 33.99 33.99h107.68c9.076 0 17.611-3.536 24.034-9.956 6.414-6.415 9.946-14.95 9.946-24.034 0-23.462-9.138-45.515-25.729-62.095-2.93-2.929-7.679-2.927-10.606.003zm-86.854-102.255c0-9.721 7.909-17.63 17.63-17.63h35.473c9.721 0 17.629 7.909 17.629 17.63v17.969c-13.333-8.131-29.319-10.007-44.253-5.085l-26.479 8.723zm0 37.399 31.172-10.269c11.278-3.713 23.395-2.044 33.245 4.586l4.285 2.884c-2.73 5.019-6.895 10.758-13.176 15.681-4.274 3.351-9.079 5.977-14.28 7.807-3.907 1.375-5.96 5.657-4.586 9.564 1.391 3.954 5.742 5.931 9.564 4.586 6.747-2.374 12.99-5.789 18.556-10.15 2.041-1.6 3.904-3.266 5.615-4.964-2.36 17.226-17.164 30.543-35.028 30.543-19.501 0-35.366-15.865-35.366-35.365v-14.903zm412.32 6.938h-148.676c-4.143 0-7.5 3.357-7.5 7.5s3.357 7.5 7.5 7.5h148.676c4.143 0 7.5-3.357 7.5-7.5s-3.357-7.5-7.5-7.5zm-201.286-28.046c-.025-.068-.053-.138-.081-.206-1.399-3.4-4.678-5.597-8.354-5.597h-.011c-3.681.004-6.959 2.208-8.353 5.615-.022.057-.045.112-.066.17l-25.42 66.743c-1.475 3.87.469 8.203 4.34 9.678 3.865 1.475 8.203-.468 9.678-4.34l4.491-11.792h30.489l4.442 11.771c1.133 3.003 3.987 4.854 7.018 4.854.88 0 1.775-.156 2.647-.485 3.875-1.462 5.831-5.789 4.368-9.665zm-18.063 45.272 9.602-25.21 9.514 25.21zm-57.041-264.377h-111.172c-4.143 0-7.5 3.357-7.5 7.5s3.357 7.5 7.5 7.5h111.172c4.143 0 7.5-3.357 7.5-7.5s-3.358-7.5-7.5-7.5zm0-33.849h-141.172c-4.143 0-7.5 3.357-7.5 7.5s3.357 7.5 7.5 7.5h141.172c4.143 0 7.5-3.357 7.5-7.5s-3.358-7.5-7.5-7.5z"/></g></svg>